<?xml version="1.0" encoding="iso-8859-1"?>
<!-- Generator: Adobe Illustrator 16.0.0, SVG Export Plug-In . SVG Version: 6.00 Build 0)  -->
<!DOCTYPE svg PUBLIC "-//W3C//DTD SVG 1.1//EN" "http://www.w3.org/Graphics/SVG/1.1/DTD/svg11.dtd">
<svg version="1.1" id="Capa_1" xmlns="http://www.w3.org/2000/svg" xmlns:xlink="http://www.w3.org/1999/xlink" x="0px" y="0px"
	 width="214.089px" height="214.089px" viewBox="0 0 214.089 214.089" style="enable-background:new 0 0 214.089 214.089;fill: #fff;"
	 xml:space="preserve">
<g>
	<path d="M189.756,7.897c0.318-0.691-0.568-3.239-0.568-3.239c3.576,3.269,9.458,10.01,11.71,16.5
		c2.541,7.306,9.315,26.793,10.154,31.874c0,0,0.893,2.444-3.103,3.952c-2.755,1.034-8.879,5.925-10.155-5.926
		c0,0-15.651-0.562-17.212-15.791c0,0-13.347-6.174-17.059,12.123c-1.123,5.515-0.426,19.186,1.549,22.425
		c0,0,11.639-0.092,15.51,0.139c2.689,0.163,3.807,0.423,3.658,10.155v15.651c0,0-0.703,2.822-7.193,5.364
		c0,0-8.322,8.035-14.108,8.035c0,0-0.987-10.154,3.665-12.265l6.909,0.284c0,0,2.264-4.794,3.948-6.635
		c0,0,1.413-14.526-4.09-10.997c0,0-14.251,15.941-26.232,11.984c0,0-23.72,30.243-58.815,29.048
		c-4.191-0.136-7.143-2.081-12.271,11.432c-2.832,7.447-3.952,15.51-17.067,26.941c0,0-7.755,9.587-12.833,27.219
		c0,0-1.271,23.696-11.142,27.917c0,0-6.49-7.613-2.397-14.949c0,0,3.529-1.271,4.938-0.986c0,0,0.139-8.559,2.536-13.82
		c1.434-3.156,0.659-9.575,0.987-13.818c0.284-3.665,1.132-8.742,5.5-13.542c0,0,6.067-9.865,0.564-22
		c0,0-6.204-11.142-4.227-20.593c0,0,2.125-7.389-13.677-1.401c-3.703,1.396-10.545,6.407,0.842,15.788
		c5.065,4.185,18.055,11.852,15.374,21.309c0,0-1.835-4.664-7.761-6.928c0,0,4.933,8.045,3.106,14.387
		c0,0-8.795-18.063-34.696-35.961c-4.737-3.274-5.925-15.371,9.455-21.01c5.169-1.895,11.446-1.038,21.864,2.819
		c2.426,0.901,8.426,2.137,10.293-1.132c6.067-10.574,16.222-18.752,41.183-28.623c0,0,20.173-11.429,27.505-27.08
		c0,0,2.395-6.203,10.717-9.587c0.184-0.077-1.407-1.693-9.02,2.536c0,0,10.994-14.242,4.793-14.242c0,0,2.258-6.487,10.717-9.167
		c1.749-0.553,4.096-0.473,9.31-2.678c0,0-7.058,0.139-11.143-5.361c0,0,11.302,0.387,23.135-3.807
		c4.658-1.646,6.343-2.535,15.652,1.978c0,0-2.536-5.355-9.31-5.778c0,0,13.116-3.384,26.941,8.6
		C188.208,9.029,188.905,9.735,189.756,7.897z"/>
</g>
<g>
</g>
<g>
</g>
<g>
</g>
<g>
</g>
<g>
</g>
<g>
</g>
<g>
</g>
<g>
</g>
<g>
</g>
<g>
</g>
<g>
</g>
<g>
</g>
<g>
</g>
<g>
</g>
<g>
</g>
</svg>
